<svg width="122" height="31" viewBox="0 0 122 31" fill="none" xmlns="http://www.w3.org/2000/svg">
<g filter="url(#filter0_d)">
<path d="M7.57936 5.84863L7.68043 7.20752C8.54143 6.15186 9.70566 5.62402 11.1731 5.62402C12.7379 5.62402 13.8123 6.2417 14.3963 7.47705C15.2498 6.2417 16.4664 5.62402 18.0462 5.62402C19.3639 5.62402 20.3447 6.0096 20.9885 6.78076C21.6324 7.54443 21.9544 8.69743 21.9544 10.2397V18H18.6975V10.251C18.6975 9.56217 18.5628 9.06055 18.2932 8.74609C18.0237 8.42415 17.5483 8.26318 16.867 8.26318C15.8936 8.26318 15.2198 8.72738 14.8455 9.65576L14.8567 18H11.6111V10.2622C11.6111 9.55843 11.4726 9.04932 11.1956 8.73486C10.9185 8.42041 10.4469 8.26318 9.78053 8.26318C8.85963 8.26318 8.19329 8.64502 7.78151 9.40869V18H4.5359V5.84863H7.57936ZM29.0345 2.86133V5.84863H31.1121V8.22949H29.0345V14.2939C29.0345 14.7432 29.1206 15.0651 29.2928 15.2598C29.465 15.4544 29.7944 15.5518 30.2811 15.5518C30.6404 15.5518 30.9586 15.5256 31.2357 15.4731V17.9326C30.5993 18.1273 29.9442 18.2246 29.2703 18.2246C26.9943 18.2246 25.8338 17.0754 25.7889 14.7769V8.22949H24.0145V5.84863H25.7889V2.86133H29.0345ZM39.203 18.2246C37.4211 18.2246 35.9686 17.6781 34.8456 16.585C33.73 15.4919 33.1722 14.0356 33.1722 12.2163V11.9019C33.1722 10.6815 33.4081 9.59212 33.8798 8.63379C34.3514 7.66797 35.0178 6.92676 35.8788 6.41016C36.7473 5.88607 37.7356 5.62402 38.8436 5.62402C40.5057 5.62402 41.8122 6.14811 42.7631 7.19629C43.7214 8.24447 44.2006 9.73063 44.2006 11.6548V12.98H36.4628C36.5676 13.7736 36.882 14.41 37.4061 14.8892C37.9377 15.3683 38.6078 15.6079 39.4164 15.6079C40.6667 15.6079 41.6438 15.1549 42.3475 14.249L43.9423 16.0347C43.4556 16.7235 42.7968 17.2625 41.9657 17.6519C41.1347 18.0337 40.2138 18.2246 39.203 18.2246ZM38.8324 8.25195C38.1885 8.25195 37.6644 8.46908 37.2601 8.90332C36.8633 9.33757 36.6088 9.95898 36.4965 10.7676H41.0111V10.5093C40.9961 9.79053 40.8015 9.23649 40.4271 8.84717C40.0528 8.45036 39.5212 8.25195 38.8324 8.25195ZM53.5717 8.89209C53.13 8.83219 52.7407 8.80225 52.4038 8.80225C51.1759 8.80225 50.371 9.21777 49.9892 10.0488V18H46.7436V5.84863H49.8095L49.8994 7.29736C50.5507 6.1818 51.4529 5.62402 52.6059 5.62402C52.9653 5.62402 53.3022 5.67269 53.6166 5.77002L53.5717 8.89209ZM61.2021 18.2246C59.4202 18.2246 57.9678 17.6781 56.8447 16.585C55.7292 15.4919 55.1714 14.0356 55.1714 12.2163V11.9019C55.1714 10.6815 55.4072 9.59212 55.8789 8.63379C56.3506 7.66797 57.0169 6.92676 57.8779 6.41016C58.7464 5.88607 59.7347 5.62402 60.8428 5.62402C62.5049 5.62402 63.8114 6.14811 64.7622 7.19629C65.7205 8.24447 66.1997 9.73063 66.1997 11.6548V12.98H58.4619C58.5667 13.7736 58.8812 14.41 59.4053 14.8892C59.9368 15.3683 60.6069 15.6079 61.4155 15.6079C62.6659 15.6079 63.6429 15.1549 64.3467 14.249L65.9414 16.0347C65.4548 16.7235 64.7959 17.2625 63.9648 17.6519C63.1338 18.0337 62.2129 18.2246 61.2021 18.2246ZM60.8315 8.25195C60.1877 8.25195 59.6636 8.46908 59.2593 8.90332C58.8625 9.33757 58.6079 9.95898 58.4956 10.7676H63.0103V10.5093C62.9953 9.79053 62.8006 9.23649 62.4263 8.84717C62.0519 8.45036 61.5203 8.25195 60.8315 8.25195ZM75.3238 14.6421C75.3238 14.2453 75.1254 13.9346 74.7286 13.71C74.3393 13.4779 73.7103 13.272 72.8419 13.0923C69.9519 12.4858 68.5069 11.258 68.5069 9.40869C68.5069 8.33057 68.9524 7.43213 69.8433 6.71338C70.7418 5.98714 71.9135 5.62402 73.3585 5.62402C74.9008 5.62402 76.1324 5.98714 77.0533 6.71338C77.9817 7.43962 78.4459 8.38298 78.4459 9.54346H75.2003C75.2003 9.07926 75.0505 8.69743 74.751 8.39795C74.4516 8.09098 73.9836 7.9375 73.3472 7.9375C72.8007 7.9375 72.3777 8.06104 72.0782 8.30811C71.7787 8.55518 71.629 8.86963 71.629 9.25146C71.629 9.61084 71.7974 9.90283 72.1343 10.1274C72.4787 10.3446 73.0552 10.5355 73.8638 10.7002C74.6724 10.8574 75.3537 11.0371 75.9078 11.2393C77.6223 11.8682 78.4796 12.9575 78.4796 14.5073C78.4796 15.6154 78.0041 16.5138 77.0533 17.2026C76.1024 17.884 74.8746 18.2246 73.3697 18.2246C72.3515 18.2246 71.4455 18.0449 70.6519 17.6855C69.8658 17.3187 69.2481 16.8208 68.7989 16.1919C68.3497 15.5555 68.1251 14.8704 68.1251 14.1367H71.2022C71.2322 14.7132 71.4455 15.1549 71.8423 15.4619C72.2392 15.7689 72.7707 15.9224 73.4371 15.9224C74.0585 15.9224 74.5264 15.8063 74.8409 15.5742C75.1628 15.3346 75.3238 15.0239 75.3238 14.6421ZM84.4366 7.17383C85.2976 6.14062 86.3795 5.62402 87.6823 5.62402C90.3177 5.62402 91.6541 7.15511 91.6915 10.2173V18H88.4459V10.3071C88.4459 9.61084 88.2962 9.09798 87.9967 8.76855C87.6972 8.43164 87.1993 8.26318 86.5031 8.26318C85.5522 8.26318 84.8634 8.63005 84.4366 9.36377V18H81.191V0.75H84.4366V7.17383ZM99.3669 13.4067L101.613 5.84863H105.094L100.209 19.8867L99.9396 20.5269C99.2134 22.1141 98.0155 22.9077 96.3459 22.9077C95.8742 22.9077 95.395 22.8366 94.9084 22.6943V20.2349L95.4025 20.2461C96.0165 20.2461 96.4732 20.1525 96.7726 19.9653C97.0796 19.7782 97.3192 19.4674 97.4914 19.0332L97.8732 18.0337L93.6169 5.84863H97.1096L99.3669 13.4067ZM110.052 5.84863L110.153 7.25244C111.022 6.16683 112.186 5.62402 113.646 5.62402C114.933 5.62402 115.892 6.00212 116.521 6.7583C117.15 7.51449 117.472 8.64502 117.487 10.1499V18H114.241V10.2285C114.241 9.53971 114.091 9.04183 113.792 8.73486C113.492 8.42041 112.994 8.26318 112.298 8.26318C111.385 8.26318 110.7 8.65251 110.243 9.43115V18H106.997V5.84863H110.052Z" fill="black"/>
</g>
<defs>
<filter id="filter0_d" x="0.535904" y="0.75" width="120.951" height="30.1577" filterUnits="userSpaceOnUse" color-interpolation-filters="sRGB">
<feFlood flood-opacity="0" result="BackgroundImageFix"/>
<feColorMatrix in="SourceAlpha" type="matrix" values="0 0 0 0 0 0 0 0 0 0 0 0 0 0 0 0 0 0 127 0" result="hardAlpha"/>
<feOffset dy="4"/>
<feGaussianBlur stdDeviation="2"/>
<feComposite in2="hardAlpha" operator="out"/>
<feColorMatrix type="matrix" values="0 0 0 0 0 0 0 0 0 0 0 0 0 0 0 0 0 0 0.5 0"/>
<feBlend mode="normal" in2="BackgroundImageFix" result="effect1_dropShadow"/>
<feBlend mode="normal" in="SourceGraphic" in2="effect1_dropShadow" result="shape"/>
</filter>
</defs>
</svg>
