<svg width="58" height="58" viewBox="0 0 58 58" fill="none" xmlns="http://www.w3.org/2000/svg">
<g filter="url(#filter0_d)">
<path d="M4.00001 24.9735C3.98535 38.7806 15.1663 49.9854 28.9735 50C42.7806 50.0147 53.9853 38.8337 54 25.0266C54.0146 11.2195 42.8336 0.0147074 29.0265 5.0109e-05C15.2194 -0.0146072 4.01467 11.1664 4.00001 24.9735Z" fill="black"/>
<path fill-rule="evenodd" clip-rule="evenodd" d="M28.9618 12.7999C22.081 12.7999 16.5 18.381 16.5 25.2617C16.5 30.7663 20.0933 35.4299 24.9862 37.1119C25.5979 37.1883 25.8272 36.806 25.8272 36.5002C25.8272 36.1944 25.8272 35.4299 25.8272 34.3596C22.3869 35.1241 21.6223 32.6776 21.6223 32.6776C21.0872 31.225 20.2462 30.8427 20.2462 30.8427C19.0994 30.0782 20.3226 30.0782 20.3226 30.0782C21.5459 30.1547 22.2339 31.3779 22.2339 31.3779C23.3807 33.2892 25.1391 32.7541 25.8272 32.4482C25.9037 31.6073 26.2859 31.0721 26.5917 30.7663C23.8394 30.4605 20.9343 29.3901 20.9343 24.5736C20.9343 23.1975 21.393 22.1271 22.2339 21.2097C22.1575 20.9804 21.6988 19.6807 22.3869 17.9987C22.3869 17.9987 23.4572 17.6929 25.8272 19.2984C26.8211 18.9926 27.8914 18.9161 28.9618 18.9161C30.0321 18.9161 31.1024 19.069 32.0963 19.2984C34.4664 17.6929 35.5367 17.9987 35.5367 17.9987C36.2248 19.6807 35.7661 20.9804 35.6896 21.2862C36.4541 22.1271 36.9893 23.2739 36.9893 24.6501C36.9893 29.4666 34.0841 30.4605 31.3318 30.7663C31.7905 31.1486 32.1728 31.9131 32.1728 33.0599C32.1728 34.7418 32.1728 36.0415 32.1728 36.5002C32.1728 36.806 32.4021 37.1883 33.0138 37.1119C37.9832 35.4299 41.5 30.7663 41.5 25.2617C41.4235 18.381 35.8425 12.7999 28.9618 12.7999Z" fill="white"/>
</g>
<defs>
<filter id="filter0_d" x="0" y="0" width="58" height="58" filterUnits="userSpaceOnUse" color-interpolation-filters="sRGB">
<feFlood flood-opacity="0" result="BackgroundImageFix"/>
<feColorMatrix in="SourceAlpha" type="matrix" values="0 0 0 0 0 0 0 0 0 0 0 0 0 0 0 0 0 0 127 0" result="hardAlpha"/>
<feOffset dy="4"/>
<feGaussianBlur stdDeviation="2"/>
<feComposite in2="hardAlpha" operator="out"/>
<feColorMatrix type="matrix" values="0 0 0 0 0 0 0 0 0 0 0 0 0 0 0 0 0 0 0.5 0"/>
<feBlend mode="normal" in2="BackgroundImageFix" result="effect1_dropShadow"/>
<feBlend mode="normal" in="SourceGraphic" in2="effect1_dropShadow" result="shape"/>
</filter>
</defs>
</svg>
