<svg width="59" height="59" viewBox="0 0 59 59" fill="none" xmlns="http://www.w3.org/2000/svg">
<g filter="url(#filter0_d)">
<path d="M4.02654 25.0531C4.0412 38.8602 15.246 50.0412 29.0531 50.0265C42.8602 50.0119 54.0412 38.8071 54.0265 25C54.0119 11.1929 42.8071 0.0119039 29 0.0265612C15.1929 0.0412185 4.01188 11.246 4.02654 25.0531Z" fill="black"/>
<path d="M29.0153 14.4015C32.4528 14.3979 32.9215 14.3974 34.3278 14.3959C35.5778 14.3945 36.2031 14.7064 36.672 14.8621C37.2974 15.174 37.7663 15.3297 38.2355 15.798C38.7048 16.2662 39.0178 16.7346 39.1747 17.3595C39.3314 17.8281 39.4883 18.4529 39.6459 19.7027C39.6474 21.109 39.6477 21.4215 39.6516 25.0152C39.6554 28.609 39.6557 28.9215 39.6572 30.3277C39.6585 31.5777 39.3467 32.2031 39.1909 32.672C38.8791 33.2973 38.7234 33.7662 38.2551 34.2355C37.7869 34.7047 37.3184 35.0177 36.6936 35.1746C36.225 35.3314 35.6002 35.4883 34.3503 35.6459C32.9441 35.6474 32.6316 35.6477 29.0379 35.6515C25.4441 35.6553 25.1316 35.6557 23.7254 35.6571C22.4754 35.6585 21.85 35.3466 21.3811 35.1909C20.7558 34.879 20.2869 34.7233 19.8176 34.255C19.3484 33.7868 19.0354 33.3184 18.8785 32.6935C18.7217 32.225 18.5648 31.6001 18.4072 30.3503C18.4057 28.944 18.4054 28.6315 18.4016 25.0378C18.3978 21.444 18.3974 21.1315 18.3959 19.7253C18.3946 18.4753 18.7065 17.85 18.8622 17.381C19.174 16.7557 19.3298 16.2868 19.798 15.8176C20.2663 15.3483 20.7347 15.0353 21.3595 14.8784C21.8281 14.7216 22.453 14.5647 23.7028 14.4072C25.109 14.4057 25.5778 14.4052 29.0153 14.4015ZM29.0128 12.0578C25.4191 12.0616 25.1066 12.0619 23.7003 12.0634C22.2941 12.0649 21.3569 12.3784 20.576 12.6917C19.7951 13.0051 19.0143 13.4746 18.2339 14.2567C17.4535 15.0388 17.1416 15.6641 16.6739 16.6021C16.3622 17.3837 16.207 18.3214 16.0522 19.7278C16.0537 21.134 16.0542 21.6028 16.0578 25.0403C16.0616 28.634 16.062 28.9465 16.0635 30.3528C16.065 31.759 16.3785 32.6962 16.6918 33.4771C17.0051 34.258 17.4747 35.0388 18.2568 35.8192C19.0389 36.5996 19.6642 36.9115 20.6022 37.3792C21.3838 37.6909 22.3214 37.8461 23.7278 38.0009C25.1341 37.9994 25.6028 37.9989 29.0403 37.9953C32.4778 37.9916 32.9466 37.9911 34.3528 37.9896C35.7591 37.9881 36.6963 37.6746 37.4772 37.3613C38.2581 37.048 39.0388 36.5784 39.8193 35.7963C40.5997 35.0142 40.9115 34.3889 41.3793 33.4509C41.6909 32.6693 41.8462 31.7317 42.001 30.3252C41.9995 28.919 41.999 28.4502 41.9953 25.0127C41.9917 21.5752 41.9912 21.1065 41.9897 19.7002C41.9882 18.294 41.6747 17.3568 41.3614 16.5759C41.048 15.795 40.5784 15.0142 39.7964 14.2338C39.0143 13.4534 38.389 13.1416 37.451 12.6738C36.6694 12.3621 35.7317 12.2069 34.3253 12.0521C32.9191 12.0536 32.6066 12.054 29.0128 12.0578Z" fill="white"/>
<path d="M29.0194 18.3078C25.2694 18.3117 22.3038 21.2836 22.3078 25.0336C22.3118 28.7836 25.2837 31.7492 29.0337 31.7453C32.7837 31.7413 35.7493 28.7694 35.7453 25.0194C35.7413 21.2694 32.7694 18.3038 29.0194 18.3078ZM29.0312 29.4015C26.6875 29.404 24.6542 27.5312 24.6516 25.0312C24.6491 22.6874 26.5219 20.6542 29.0219 20.6515C31.3657 20.649 33.3989 22.5219 33.4016 25.0219C33.4041 27.3656 31.375 29.399 29.0312 29.4015Z" fill="white"/>
<path d="M35.8959 19.7067C36.7589 19.7058 37.4577 19.0055 37.4568 18.1426C37.4559 17.2796 36.7556 16.5808 35.8926 16.5817C35.0297 16.5826 34.3309 17.2829 34.3318 18.1459C34.3327 19.0088 35.033 19.7076 35.8959 19.7067Z" fill="white"/>
</g>
<defs>
<filter id="filter0_d" x="0" y="0" width="58.053" height="58.053" filterUnits="userSpaceOnUse" color-interpolation-filters="sRGB">
<feFlood flood-opacity="0" result="BackgroundImageFix"/>
<feColorMatrix in="SourceAlpha" type="matrix" values="0 0 0 0 0 0 0 0 0 0 0 0 0 0 0 0 0 0 127 0" result="hardAlpha"/>
<feOffset dy="4"/>
<feGaussianBlur stdDeviation="2"/>
<feComposite in2="hardAlpha" operator="out"/>
<feColorMatrix type="matrix" values="0 0 0 0 0 0 0 0 0 0 0 0 0 0 0 0 0 0 0.5 0"/>
<feBlend mode="normal" in2="BackgroundImageFix" result="effect1_dropShadow"/>
<feBlend mode="normal" in="SourceGraphic" in2="effect1_dropShadow" result="shape"/>
</filter>
</defs>
</svg>
