<svg width="146" height="100" viewBox="0 0 146 100" fill="none" xmlns="http://www.w3.org/2000/svg">
<path d="M6 0H146V100H6V0Z" fill="white"/>
<g filter="url(#filter0_d)">
<path d="M16.5794 45.8486L16.6804 47.2075C17.5414 46.1519 18.7057 45.624 20.1731 45.624C21.7379 45.624 22.8123 46.2417 23.3963 47.4771C24.2498 46.2417 25.4664 45.624 27.0462 45.624C28.3639 45.624 29.3447 46.0096 29.9885 46.7808C30.6324 47.5444 30.9544 48.6974 30.9544 50.2397V58H27.6975V50.251C27.6975 49.5622 27.5628 49.0605 27.2932 48.7461C27.0237 48.4242 26.5483 48.2632 25.867 48.2632C24.8936 48.2632 24.2198 48.7274 23.8455 49.6558L23.8567 58H20.6111V50.2622C20.6111 49.5584 20.4726 49.0493 20.1956 48.7349C19.9185 48.4204 19.4469 48.2632 18.7805 48.2632C17.8596 48.2632 17.1933 48.645 16.7815 49.4087V58H13.5359V45.8486H16.5794ZM38.0345 42.8613V45.8486H40.1121V48.2295H38.0345V54.2939C38.0345 54.7432 38.1206 55.0651 38.2928 55.2598C38.465 55.4544 38.7944 55.5518 39.2811 55.5518C39.6404 55.5518 39.9586 55.5256 40.2357 55.4731V57.9326C39.5993 58.1273 38.9442 58.2246 38.2703 58.2246C35.9943 58.2246 34.8338 57.0754 34.7889 54.7769V48.2295H33.0145V45.8486H34.7889V42.8613H38.0345ZM48.203 58.2246C46.4211 58.2246 44.9686 57.6781 43.8456 56.585C42.73 55.4919 42.1722 54.0356 42.1722 52.2163V51.9019C42.1722 50.6815 42.4081 49.5921 42.8798 48.6338C43.3514 47.668 44.0178 46.9268 44.8788 46.4102C45.7473 45.8861 46.7356 45.624 47.8436 45.624C49.5057 45.624 50.8122 46.1481 51.7631 47.1963C52.7214 48.2445 53.2006 49.7306 53.2006 51.6548V52.98H45.4628C45.5676 53.7736 45.882 54.41 46.4061 54.8892C46.9377 55.3683 47.6078 55.6079 48.4164 55.6079C49.6667 55.6079 50.6438 55.1549 51.3475 54.249L52.9423 56.0347C52.4556 56.7235 51.7968 57.2625 50.9657 57.6519C50.1347 58.0337 49.2138 58.2246 48.203 58.2246ZM47.8324 48.252C47.1885 48.252 46.6644 48.4691 46.2601 48.9033C45.8633 49.3376 45.6088 49.959 45.4965 50.7676H50.0111V50.5093C49.9961 49.7905 49.8015 49.2365 49.4271 48.8472C49.0528 48.4504 48.5212 48.252 47.8324 48.252ZM62.5717 48.8921C62.13 48.8322 61.7407 48.8022 61.4038 48.8022C60.1759 48.8022 59.371 49.2178 58.9892 50.0488V58H55.7436V45.8486H58.8095L58.8994 47.2974C59.5507 46.1818 60.4529 45.624 61.6059 45.624C61.9653 45.624 62.3022 45.6727 62.6166 45.77L62.5717 48.8921ZM70.2021 58.2246C68.4202 58.2246 66.9678 57.6781 65.8447 56.585C64.7292 55.4919 64.1714 54.0356 64.1714 52.2163V51.9019C64.1714 50.6815 64.4072 49.5921 64.8789 48.6338C65.3506 47.668 66.0169 46.9268 66.8779 46.4102C67.7464 45.8861 68.7347 45.624 69.8428 45.624C71.5049 45.624 72.8114 46.1481 73.7622 47.1963C74.7205 48.2445 75.1997 49.7306 75.1997 51.6548V52.98H67.4619C67.5667 53.7736 67.8812 54.41 68.4053 54.8892C68.9368 55.3683 69.6069 55.6079 70.4155 55.6079C71.6659 55.6079 72.6429 55.1549 73.3467 54.249L74.9414 56.0347C74.4548 56.7235 73.7959 57.2625 72.9648 57.6519C72.1338 58.0337 71.2129 58.2246 70.2021 58.2246ZM69.8315 48.252C69.1877 48.252 68.6636 48.4691 68.2593 48.9033C67.8625 49.3376 67.6079 49.959 67.4956 50.7676H72.0103V50.5093C71.9953 49.7905 71.8006 49.2365 71.4263 48.8472C71.0519 48.4504 70.5203 48.252 69.8315 48.252ZM84.3238 54.6421C84.3238 54.2453 84.1254 53.9346 83.7286 53.71C83.3393 53.4779 82.7103 53.272 81.8419 53.0923C78.9519 52.4858 77.5069 51.258 77.5069 49.4087C77.5069 48.3306 77.9524 47.4321 78.8433 46.7134C79.7418 45.9871 80.9135 45.624 82.3585 45.624C83.9008 45.624 85.1324 45.9871 86.0533 46.7134C86.9817 47.4396 87.4459 48.383 87.4459 49.5435H84.2003C84.2003 49.0793 84.0505 48.6974 83.751 48.3979C83.4516 48.091 82.9836 47.9375 82.3472 47.9375C81.8007 47.9375 81.3777 48.061 81.0782 48.3081C80.7787 48.5552 80.629 48.8696 80.629 49.2515C80.629 49.6108 80.7974 49.9028 81.1343 50.1274C81.4787 50.3446 82.0552 50.5355 82.8638 50.7002C83.6724 50.8574 84.3537 51.0371 84.9078 51.2393C86.6223 51.8682 87.4796 52.9575 87.4796 54.5073C87.4796 55.6154 87.0041 56.5138 86.0533 57.2026C85.1024 57.884 83.8746 58.2246 82.3697 58.2246C81.3515 58.2246 80.4455 58.0449 79.6519 57.6855C78.8658 57.3187 78.2481 56.8208 77.7989 56.1919C77.3497 55.5555 77.1251 54.8704 77.1251 54.1367H80.2022C80.2322 54.7132 80.4455 55.1549 80.8423 55.4619C81.2392 55.7689 81.7707 55.9224 82.4371 55.9224C83.0585 55.9224 83.5264 55.8063 83.8409 55.5742C84.1628 55.3346 84.3238 55.0239 84.3238 54.6421ZM93.4366 47.1738C94.2976 46.1406 95.3795 45.624 96.6823 45.624C99.3177 45.624 100.654 47.1551 100.692 50.2173V58H97.4459V50.3071C97.4459 49.6108 97.2962 49.098 96.9967 48.7686C96.6972 48.4316 96.1993 48.2632 95.5031 48.2632C94.5522 48.2632 93.8634 48.63 93.4366 49.3638V58H90.191V40.75H93.4366V47.1738ZM108.367 53.4067L110.613 45.8486H114.094L109.209 59.8867L108.94 60.5269C108.213 62.1141 107.015 62.9077 105.346 62.9077C104.874 62.9077 104.395 62.8366 103.908 62.6943V60.2349L104.403 60.2461C105.016 60.2461 105.473 60.1525 105.773 59.9653C106.08 59.7782 106.319 59.4674 106.491 59.0332L106.873 58.0337L102.617 45.8486H106.11L108.367 53.4067ZM119.052 45.8486L119.153 47.2524C120.022 46.1668 121.186 45.624 122.646 45.624C123.933 45.624 124.892 46.0021 125.521 46.7583C126.15 47.5145 126.472 48.645 126.487 50.1499V58H123.241V50.2285C123.241 49.5397 123.091 49.0418 122.792 48.7349C122.492 48.4204 121.994 48.2632 121.298 48.2632C120.385 48.2632 119.7 48.6525 119.243 49.4312V58H115.997V45.8486H119.052Z" fill="black"/>
</g>
<defs>
<filter id="filter0_d" x="9.5359" y="40.75" width="120.951" height="30.1577" filterUnits="userSpaceOnUse" color-interpolation-filters="sRGB">
<feFlood flood-opacity="0" result="BackgroundImageFix"/>
<feColorMatrix in="SourceAlpha" type="matrix" values="0 0 0 0 0 0 0 0 0 0 0 0 0 0 0 0 0 0 127 0" result="hardAlpha"/>
<feOffset dy="4"/>
<feGaussianBlur stdDeviation="2"/>
<feComposite in2="hardAlpha" operator="out"/>
<feColorMatrix type="matrix" values="0 0 0 0 0 0 0 0 0 0 0 0 0 0 0 0 0 0 0.5 0"/>
<feBlend mode="normal" in2="BackgroundImageFix" result="effect1_dropShadow"/>
<feBlend mode="normal" in="SourceGraphic" in2="effect1_dropShadow" result="shape"/>
</filter>
</defs>
</svg>
